<svg id="_003-blackberry-qr-code-variant" data-name="003-blackberry-qr-code-variant" xmlns="http://www.w3.org/2000/svg" viewBox="0 0 22.16 22.159">
  <defs>
    <style>
      .cls-1 {
        fill: #484848;
      }
    </style>
  </defs>
  <path id="Path_205" data-name="Path 205" class="cls-1" d="M5.277,11.608H6.333v1.056H7.388V13.72H2.112V12.664H3.167V10.552H5.279v1.055h0ZM19,21.1h1.054V20.049H19Zm-12.663-9.5H7.387V10.552H6.332ZM21.1,21.1H22.16V20.049H21.1ZM8.444,22.159h2.109V21.1H8.444Zm9.5,0V21.1H16.883v1.055Zm-4.22,0h1.055V20.048H13.719ZM5.277,8.442V9.5H8.442V8.442ZM4.223,9.5V8.441H2.111v2.111H3.166V9.5H4.223ZM7.387,7.386H0V0H7.387ZM6.332,1.056H1.055V6.331H6.332ZM2.111,20.049H5.276V16.883H2.111Zm10.552-1.056v1.056H13.72V18.992ZM5.277,2.112H2.112V5.276H5.277V2.112ZM22.159,0V7.387H14.773V0ZM21.1,1.056H15.828V6.331H21.1ZM0,14.771H7.387v7.386H0ZM1.056,21.1H6.333V15.827H1.056Zm0-12.662H0v5.277H1.056Zm13.717,5.275v1.054h1.055V13.717Zm-3.166,4.221V16.883H10.552v1.056H8.443v2.112h2.109v1.055h1.055V18.995h1.056V17.939H11.607ZM8.444,4.222h2.109V3.165H8.444Zm8.44,8.441H19v1.055h1.055V10.554H19V8.442H17.939v3.166H14.776v1.056h1.055V13.72h1.055V12.664h0Zm1.055,3.164H16.883V14.771H15.827v2.112H12.663v1.056h2.112v2.112H15.83v1.055h1.055V18.995h4.22V17.939H17.941V15.827Zm0,0H19v-2.11H17.939Zm-8.441,0V14.771h1.054V13.717h1.055V12.662h1.056V10.55h3.165V8.439H14.772V9.494H13.717V5.274H12.661V3.162h1.055V0H12.661V2.111H11.606V0H8.441V2.111H9.5V1.055H10.55V3.165h1.055V6.331h1.055V7.386H11.606V9.5H10.55V7.386H9.5V6.331H8.441V8.442H9.5V9.5H8.441v3.166H9.5V10.552H10.55v2.112H9.5V13.72H8.441v3.163H10.55V15.827ZM21.1,16.883V15.827H18.994v1.055ZM20.048,2.112H16.884V5.276h3.164ZM11.607,15.827H13.72V14.771H12.663V13.717H11.606v2.11Zm2.112-2.11V12.662H12.662v1.055ZM20.048,9.5H22.16V8.441H20.048ZM21.1,17.938H22.16V16.883H21.1Zm0-6.331H22.16V10.552H21.1Zm-9.5-5.277H10.552V7.387h1.055Z"/>
</svg>
